{"title":"Luis Bunuel's L'Age D'Or (1930) - 1080p x265 HEVC - ENG SUBS [BR","uid":14691597,"size":1697981818,"categoryP":"video","categoryS":"hd___movies","magnet":"?xt=urn:btih:6ea3d4178057d998acb80c22646b37adf77cca88&amp;dn=Luis+Bunuel%27s+L%27Age+D%27Or+%281930%29+-+1080p+x265+HEVC+-+ENG+SUBS+%5BBR&amp;tr=udp%3A%2F%2Ftracker.leechers-paradise.org%3A6969&amp;tr=udp%3A%2F%2Fzer0day.ch%3A1337&amp;tr=udp%3A%2F%2Fopen.demonii.com%3A1337&amp;tr=udp%3A%2F%2Ftracker.coppersurfer.tk%3A6969&amp;tr=udp%3A%2F%2Fexodus.desync.com%3A6969","seeders":1,"leechers":0,"uploader":"BRSHNKV","files":2,"time":1464206733,"description":"Families, the church and bourgeois society try to thwart the passion of a lusty man and woman .\r\n\r\nTechnical:\r\n\r\nFormat : MPEG-4\r\nFormat profile : Base Media / Version 2\r\nCodec ID : mp42\r\nFile size : 1.15 GiB\r\nDuration : 1h 2mn\r\nOverall bit rate mode : Variable\r\nOverall bit rate : 2 631 Kbps\r\nEncoded date : UTC 2016-05-20 00:37:12\r\nTagged date : UTC 2016-05-20 00:37:12\r\nWriting application : HandBrake 20160211184813-ffd8cb1-master 2016021301\r\n\r\nVideo\r\nID : 1\r\nFormat : HEVC\r\nFormat/Info : High Efficiency Video Coding\r\nFormat profile : Main   @Main\r\nCodec ID : hev1\r\nCodec ID/Info : High Efficiency Video Coding\r\nDuration : 1h 2mn\r\nBit rate : 2 501 Kbps\r\nWidth : 1 276 pixels\r\nHeight : 1 080 pixels\r\nDisplay aspect ratio : 1.181\r\nFrame rate mode : Variable\r\nFrame rate : 23.976 fps\r\nMinimum frame rate : 23.974 fps\r\nMaximum frame rate : 23.981 fps\r\nColor space : YUV\r\nChroma subsampling : 4:2:0\r\nBit depth : 10 bits\r\nBits/(Pixel*Frame) : 0.076\r\nStream size : 1.09 GiB (95%)\r\nWriting library : x265 1.9:[Mac OS X][clang 7.0.2][64 bit] 10bit\r\nEncoding settings : wpp / ctu=64 / min-cu-size=8 / max-tu-size=32 / tu-intra-depth=1 / tu-inter-depth=1 / me=1 / subme=2 / merange=57 / no-rect / no-amp / max-merge=2 / temporal-mvp / no-early-skip / rdpenalty=0 / no-tskip / no-tskip-fast / strong-intra-smoothing / no-lossless / no-cu-lossless / no-constrained-intra / no-fast-intra / open-gop / no-temporal-layers / interlace=0 / keyint=240 / min-keyint=24 / scenecut=40 / rc-lookahead=20 / lookahead-slices=6 / bframes=4 / bframe-bias=0 / b-adapt=2 / ref=3 / limit-refs=3 / no-limit-modes / weightp / no-weightb / aq-mode=1 / qg-size=32 / aq-strength=1.00 / cbqpoffs=0 / crqpoffs=0 / rd=3 / psy-rd=2.00 / rdoq-level=0 / psy-rdoq=0.00 / signhide / deblock / sao / no-sao-non-deblock / b-pyramid / cutree / no-intra-refresh / rc=2 / pass / bitrate=2500 / qcomp=0.60 / qpmin=0 / qpmax=51 / qpstep=4 / cplxblur=20.0 / qblur=0.5 / ipratio=1.40 / pbratio=1.30\r\nEncoded date : UTC 2016-05-20 00:37:12\r\nTagged date : UTC 2016-05-20 00:37:12\r\nColor range : Limited\r\nColor primaries : BT.709\r\nTransfer characteristics : BT.709\r\nMatrix coefficients : BT.709\r\n\r\nAudio\r\nID : 2\r\nFormat : AAC\r\nFormat/Info : Advanced Audio Codec\r\nFormat profile : LC\r\nCodec ID : 40\r\nDuration : 1h 2mn\r\nBit rate mode : Variable\r\nBit rate : 124 Kbps\r\nChannel(s) : 2 channels\r\nChannel positions : Front: L R\r\nSampling rate : 48.0 KHz\r\nCompression mode : Lossy\r\nStream size : 55.7 MiB (5%)\r\nTitle : Stereo / Stereo\r\nLanguage : English\r\nEncoded date : UTC 2016-05-20 00:37:12\r\nTagged date : UTC 2016-05-20 00:37:12","torrent":{"xt":"urn:btih:6ea3d4178057d998acb80c22646b37adf77cca88","amp;dn":"Luis+Bunuel%27s+L%27Age+D%27Or+%281930%29+-+1080p+x265+HEVC+-+ENG+SUBS+%5BBR","amp;tr":["udp%3A%2F%2Ftracker.leechers-paradise.org%3A6969","udp%3A%2F%2Fzer0day.ch%3A1337","udp%3A%2F%2Fopen.demonii.com%3A1337","udp%3A%2F%2Ftracker.coppersurfer.tk%3A6969","udp%3A%2F%2Fexodus.desync.com%3A6969"],"infoHash":"6ea3d4178057d998acb80c22646b37adf77cca88","infoHashBuffer":{"type":"Buffer","data":[110,163,212,23,128,87,217,152,172,184,12,34,100,107,55,173,247,124,202,136]},"announce":[],"urlList":[]}}